<?xml version="1.0" encoding="UTF-8"?> <svg xmlns="http://www.w3.org/2000/svg" width="385" height="96" viewBox="0 0 385 96" fill="none"> <path d="M224.409 53.1005H223.839L195.879 19.7305H186.539V59.1205H188.229V21.4205H189.919L221.589 59.1205H226.099V19.7305H224.409V53.1005Z" fill="#121A27"></path> <path d="M257.32 19C246.06 19 233.4 25.81 233.4 39.48C233.4 52.98 246.06 59.85 257.32 59.85C268.58 59.85 281.32 52.98 281.32 39.48C281.29 25.81 268.57 19 257.32 19ZM257.37 58.33C245.73 58.39 239.25 49.33 239.25 39.14C239.31 29.14 245.56 20.46 257.32 20.35C269.08 20.24 275.43 29.47 275.49 39.65C275.38 49.61 269.13 58.27 257.37 58.33Z" fill="#121A27"></path> <path d="M320.6 19.7307H318.64L304.85 49.4406H303.89L290.05 19.6807H283.92L302.32 59.0607L320.6 19.7307Z" fill="#121A27"></path> <path d="M332.98 19.7305H327.35V59.1205H332.98V19.7305Z" fill="#121A27"></path> <path d="M368.591 30.9905L375.061 19.7305H372.861L366.281 30.9905H349.851V19.7305H344.221V59.1205H349.851V32.6705H363.131L378.381 59.1205H384.911L368.591 30.9905Z" fill="#121A27"></path> <path d="M189.28 76.0207C189.28 73.5307 196.28 72.0207 199.48 75.9107L200.16 74.7607C196.16 71.8207 187.02 72.6307 187.02 76.0207C187.02 80.8207 199.39 76.2907 199.42 83.7407C199.42 88.8307 191.84 90.6807 186.66 86.3107L186 87.4507C191.05 90.5207 201.68 90.3407 201.63 83.7607C201.59 75.9107 189.28 80.1107 189.28 76.0207Z" fill="#121A27"></path> <path d="M223.529 77.8305H210.639V73.3105H208.369V89.1405H210.639V78.5105H223.529V89.1405H225.789V73.3105H223.529V77.8305Z" fill="#121A27"></path> <path d="M235.74 73.3105H233.48V89.1405H235.74V73.3105Z" fill="#121A27"></path> <path d="M254.301 73.3105H243.211V89.1105H245.511V78.5105H254.331C256.331 78.5105 257.951 78.0105 257.951 76.0205C257.951 74.0305 256.291 73.3105 254.301 73.3105ZM253.841 77.8305H245.511V73.9905H253.871C255.351 73.9905 255.461 74.5505 255.461 75.9905C255.461 77.4305 255.321 77.8305 253.841 77.8305Z" fill="#121A27"></path> <path d="M274.881 73.3105H263.801V89.1105H266.061V78.5105H274.881C276.881 78.5105 278.501 78.0105 278.501 76.0205C278.501 74.0305 276.871 73.3105 274.881 73.3105ZM274.431 77.8305H266.061V73.9905H274.431C275.901 73.9905 276.011 74.5505 276.011 75.9905C276.011 77.4305 275.901 77.8305 274.431 77.8305Z" fill="#121A27"></path> <path d="M286.641 73.3105H284.381V89.1405H286.641V73.3105Z" fill="#121A27"></path> <path d="M309.791 86.7205H309.561L298.321 73.3105H294.561V89.1405H295.241V73.9905H295.921L308.661 89.1405H310.471V73.3105H309.791V86.7205Z" fill="#121A27"></path> <path d="M326.87 73.5608C327.899 73.5153 328.924 73.7051 329.869 74.1158C330.813 74.5265 331.651 75.1473 332.32 75.9308L332.98 74.7808C331.155 73.6174 329.034 73.003 326.87 73.0108C322.35 73.0108 317.26 75.7508 317.26 81.2508C317.26 86.7508 322.35 89.4408 326.87 89.4408C329.034 89.4486 331.155 88.8343 332.98 87.6708V77.8308H329.51L329.12 78.5108H330.68V87.8508C329.519 88.5212 328.2 88.8666 326.86 88.8508C322.18 88.8508 319.58 85.2308 319.58 81.1308C319.58 77.0308 322.14 73.6008 326.87 73.5608Z" fill="#121A27"></path> <path d="M0.439324 95.6328C10.5293 92.4228 37.3493 84.3229 67.9493 88.0929C89.6093 90.7529 117.709 85.0929 131.319 82.8929C131.38 82.8757 131.431 82.8373 131.466 82.7849C131.5 82.7325 131.514 82.6695 131.506 82.6075C131.497 82.5455 131.466 82.4886 131.419 82.4474C131.372 82.4061 131.312 82.3832 131.249 82.3828C123.159 83.1328 109.929 84.2428 99.5693 84.0428C118.389 52.8428 160.569 40.9529 160.569 40.9529C160.569 40.9529 144.779 28.9529 111.939 28.6629L111.679 28.1529C111.579 27.9729 111.459 27.7329 111.319 27.4629C110.219 25.3346 108.966 23.2892 107.569 21.3428C105.681 18.6481 103.512 16.1609 101.099 13.9229C101.099 13.9229 79.5693 15.3729 62.0293 25.6929C40.1093 38.5929 32.9493 47.2829 26.5993 56.5029L25.5093 58.0529C11.7593 68.9029 4.30932 78.6628 4.30932 78.6628L5.35934 81.5428C5.35934 81.5428 27.0793 53.5929 67.4893 38.8229C97.8393 27.7229 127.429 32.4029 140.069 37.5729C102.509 61.1129 95.9293 81.0529 95.1493 83.8629C89.2193 83.4629 84.9393 82.4428 84.3993 80.3528C82.5293 73.1428 92.6893 68.2829 89.9693 68.2829C88.2793 68.2829 81.6893 69.7429 74.4793 74.9329C67.2693 80.1229 58.0793 84.2329 56.3193 83.1129C54.5593 81.9929 57.0993 80.0428 62.9293 76.1628C62.9921 76.1253 63.0395 76.0669 63.0633 75.9978C63.0871 75.9287 63.0857 75.8534 63.0594 75.7852C63.0331 75.717 62.9835 75.6603 62.9195 75.6251C62.8554 75.5899 62.781 75.5785 62.7093 75.5929C57.0193 76.2029 49.2093 82.9528 46.8893 82.8228C45.0793 82.7128 44.9593 81.1128 45.0293 80.2628C45.0355 80.2185 45.0286 80.1732 45.0095 80.1327C44.9903 80.0922 44.9597 80.0582 44.9215 80.0348C44.8832 80.0115 44.839 79.9998 44.7942 80.0012C44.7494 80.0026 44.706 80.0171 44.6693 80.0428C41.5227 82.0292 37.9077 83.1503 34.1893 83.2928C29.4893 83.2928 28.7093 81.0428 28.5893 80.1328C28.5817 80.0926 28.5647 80.0546 28.5396 80.0222C28.5146 79.9897 28.4822 79.9637 28.4452 79.9461C28.4081 79.9286 28.3674 79.92 28.3264 79.9212C28.2855 79.9224 28.2453 79.9332 28.2093 79.9529L0.209343 95.0128C0.145877 95.0554 0.0985605 95.118 0.075066 95.1907C0.0515714 95.2634 0.053255 95.3419 0.0798267 95.4136C0.106398 95.4852 0.156329 95.5458 0.22155 95.5856C0.286772 95.6254 0.363476 95.642 0.439324 95.6328Z" fill="#121A27"></path> <path d="M52.1692 28.6431C72.1692 13.8331 97.6092 10.8631 97.6092 10.8631C95.6212 9.23992 93.4852 7.80696 91.2292 6.58313C88.9427 5.26211 86.5513 4.13161 84.0792 3.20313C84.0792 3.20313 64.0792 9.58313 45.2692 27.7831C29.2192 43.2731 26.5292 49.7831 25.1992 51.5931L25.3992 54.0731C27.9292 50.7831 31.8892 43.6231 52.1692 28.6431Z" fill="#121A27"></path> <path d="M50.5894 18.5229C60.6794 9.52294 79.1295 1.67293 79.1295 1.67293C76.6304 1.03845 74.0913 0.574055 71.5294 0.28293C69.2253 0.0301273 66.9058 -0.05343 64.5894 0.0329305C64.5894 0.0329305 43.3395 12.8729 27.6695 39.5829C27.5395 41.3129 27.4395 43.9829 27.4395 43.9829C34.2097 34.6816 41.9721 26.1447 50.5894 18.5229Z" fill="#121A27"></path> </svg> 